<svg xmlns="http://www.w3.org/2000/svg" style="position:absolute;width:0;height:0;overflow:hidden" aria-hidden="true">
<symbol id="i-graduation-cap" viewBox="0 0 24 24" fill="none"><path d="M21.42 10.922a1 1 0 0 0-.019-1.838L12.83 5.18a2 2 0 0 0-1.66 0L2.6 9.08a1 1 0 0 0 0 1.832l8.57 3.908a2 2 0 0 0 1.66 0z" />
  <path d="M22 10v6" />
  <path d="M6 12.5V16a6 3 0 0 0 12 0v-3.5" /></symbol>
<symbol id="i-home" viewBox="0 0 24 24" fill="none"><path d="M15 21v-8a1 1 0 0 0-1-1h-4a1 1 0 0 0-1 1v8" />
  <path d="M3 10a2 2 0 0 1 .709-1.528l7-5.999a2 2 0 0 1 2.582 0l7 5.999A2 2 0 0 1 21 10v9a2 2 0 0 1-2 2H5a2 2 0 0 1-2-2z" /></symbol>
<symbol id="i-sessions" viewBox="0 0 24 24" fill="none"><path d="M8 2v4" />
  <path d="M16 2v4" />
  <rect width="18" height="18" x="3" y="4" rx="2" />
  <path d="M3 10h18" />
  <path d="M8 14h.01" />
  <path d="M12 14h.01" />
  <path d="M16 14h.01" />
  <path d="M8 18h.01" />
  <path d="M12 18h.01" />
  <path d="M16 18h.01" /></symbol>
<symbol id="i-schedule" viewBox="0 0 24 24" fill="none"><path d="M21 7.5V6a2 2 0 0 0-2-2H5a2 2 0 0 0-2 2v14a2 2 0 0 0 2 2h3.5" />
  <path d="M16 2v4" />
  <path d="M8 2v4" />
  <path d="M3 10h5" />
  <path d="M17.5 17.5 16 16.3V14" />
  <circle cx="16" cy="16" r="6" /></symbol>
<symbol id="i-students" viewBox="0 0 24 24" fill="none"><path d="M16 21v-2a4 4 0 0 0-4-4H6a4 4 0 0 0-4 4v2" />
  <circle cx="9" cy="7" r="4" />
  <path d="M22 21v-2a4 4 0 0 0-3-3.87" />
  <path d="M16 3.13a4 4 0 0 1 0 7.75" /></symbol>
<symbol id="i-trainers" viewBox="0 0 24 24" fill="none"><circle cx="12" cy="8" r="5" />
  <path d="M20 21a8 8 0 0 0-16 0" /></symbol>
<symbol id="i-curricula" viewBox="0 0 24 24" fill="none"><path d="M2 3h6a4 4 0 0 1 4 4v14a3 3 0 0 0-3-3H2z" />
  <path d="M22 3h-6a4 4 0 0 0-4 4v14a3 3 0 0 1 3-3h7z" /></symbol>
<symbol id="i-reports" viewBox="0 0 24 24" fill="none"><path d="M3 3v18h18" />
  <path d="M18 17V9" />
  <path d="M13 17V5" />
  <path d="M8 17v-3" /></symbol>
<symbol id="i-settings" viewBox="0 0 24 24" fill="none"><path d="M12.22 2h-.44a2 2 0 0 0-2 2v.18a2 2 0 0 1-1 1.73l-.43.25a2 2 0 0 1-2 0l-.15-.08a2 2 0 0 0-2.73.73l-.22.38a2 2 0 0 0 .73 2.73l.15.1a2 2 0 0 1 1 1.72v.51a2 2 0 0 1-1 1.74l-.15.09a2 2 0 0 0-.73 2.73l.22.38a2 2 0 0 0 2.73.73l.15-.08a2 2 0 0 1 2 0l.43.25a2 2 0 0 1 1 1.73V20a2 2 0 0 0 2 2h.44a2 2 0 0 0 2-2v-.18a2 2 0 0 1 1-1.73l.43-.25a2 2 0 0 1 2 0l.15.08a2 2 0 0 0 2.73-.73l.22-.39a2 2 0 0 0-.73-2.73l-.15-.08a2 2 0 0 1-1-1.74v-.5a2 2 0 0 1 1-1.74l.15-.09a2 2 0 0 0 .73-2.73l-.22-.38a2 2 0 0 0-2.73-.73l-.15.08a2 2 0 0 1-2 0l-.43-.25a2 2 0 0 1-1-1.73V4a2 2 0 0 0-2-2z" />
  <circle cx="12" cy="12" r="3" /></symbol>
<symbol id="i-help" viewBox="0 0 24 24" fill="none"><circle cx="12" cy="12" r="10" />
  <path d="m4.93 4.93 4.24 4.24" />
  <path d="m14.83 9.17 4.24-4.24" />
  <path d="m14.83 14.83 4.24 4.24" />
  <path d="m9.17 14.83-4.24 4.24" />
  <circle cx="12" cy="12" r="4" /></symbol>
<symbol id="i-search" viewBox="0 0 24 24" fill="none"><circle cx="11" cy="11" r="8" />
  <path d="m21 21-4.3-4.3" /></symbol>
<symbol id="i-bell" viewBox="0 0 24 24" fill="none"><path d="M6 8a6 6 0 0 1 12 0c0 7 3 9 3 9H3s3-2 3-9" />
  <path d="M10.3 21a1.94 1.94 0 0 0 3.4 0" /></symbol>
<symbol id="i-moon" viewBox="0 0 24 24" fill="none"><path d="M12 3a6 6 0 0 0 9 9 9 9 0 1 1-9-9Z" /></symbol>
<symbol id="i-sun" viewBox="0 0 24 24" fill="none"><circle cx="12" cy="12" r="4" />
  <path d="M12 2v2" />
  <path d="M12 20v2" />
  <path d="m4.93 4.93 1.41 1.41" />
  <path d="m17.66 17.66 1.41 1.41" />
  <path d="M2 12h2" />
  <path d="M20 12h2" />
  <path d="m6.34 17.66-1.41 1.41" />
  <path d="m19.07 4.93-1.41 1.41" /></symbol>
<symbol id="i-monitor" viewBox="0 0 24 24" fill="none"><rect width="20" height="14" x="2" y="3" rx="2" />
  <line x1="8" x2="16" y1="21" y2="21" />
  <line x1="12" x2="12" y1="17" y2="21" /></symbol>
<symbol id="i-globe" viewBox="0 0 24 24" fill="none"><circle cx="12" cy="12" r="10" />
  <path d="M12 2a14.5 14.5 0 0 0 0 20 14.5 14.5 0 0 0 0-20" />
  <path d="M2 12h20" /></symbol>
<symbol id="i-menu" viewBox="0 0 24 24" fill="none"><line x1="4" x2="20" y1="12" y2="12" />
  <line x1="4" x2="20" y1="6" y2="6" />
  <line x1="4" x2="20" y1="18" y2="18" /></symbol>
<symbol id="i-user" viewBox="0 0 24 24" fill="none"><circle cx="12" cy="8" r="5" />
  <path d="M20 21a8 8 0 0 0-16 0" /></symbol>
<symbol id="i-log-out" viewBox="0 0 24 24" fill="none"><path d="M9 21H5a2 2 0 0 1-2-2V5a2 2 0 0 1 2-2h4" />
  <polyline points="16 17 21 12 16 7" />
  <line x1="21" x2="9" y1="12" y2="12" /></symbol>
<symbol id="i-chevronStart" viewBox="0 0 24 24" fill="none"><path d="m9 18 6-6-6-6" /></symbol>
<symbol id="i-chevronEnd" viewBox="0 0 24 24" fill="none"><path d="m15 18-6-6 6-6" /></symbol>
<symbol id="i-chevron-down" viewBox="0 0 24 24" fill="none"><path d="m6 9 6 6 6-6" /></symbol>
<symbol id="i-plus" viewBox="0 0 24 24" fill="none"><path d="M5 12h14" />
  <path d="M12 5v14" /></symbol>
<symbol id="i-wallet" viewBox="0 0 24 24" fill="none"><path d="M19 7V4a1 1 0 0 0-1-1H5a2 2 0 0 0 0 4h15a1 1 0 0 1 1 1v4h-3a2 2 0 0 0 0 4h3a1 1 0 0 0 1-1v-2a1 1 0 0 0-1-1" />
  <path d="M3 5v14a2 2 0 0 0 2 2h15a1 1 0 0 0 1-1v-4" /></symbol>
<symbol id="i-check-circle" viewBox="0 0 24 24" fill="none"><circle cx="12" cy="12" r="10" />
  <path d="m9 12 2 2 4-4" /></symbol>
<symbol id="i-trending-up" viewBox="0 0 24 24" fill="none"><polyline points="22 7 13.5 15.5 8.5 10.5 2 17" />
  <polyline points="16 7 22 7 22 13" /></symbol>
<symbol id="i-user-check" viewBox="0 0 24 24" fill="none"><path d="M2 21a8 8 0 0 1 13.292-6" />
  <circle cx="10" cy="8" r="5" />
  <path d="m16 19 2 2 4-4" /></symbol>
<symbol id="i-calendar" viewBox="0 0 24 24" fill="none"><path d="M8 2v4" />
  <path d="M16 2v4" />
  <rect width="18" height="18" x="3" y="4" rx="2" />
  <path d="M3 10h18" />
  <path d="M8 14h.01" />
  <path d="M12 14h.01" />
  <path d="M16 14h.01" />
  <path d="M8 18h.01" />
  <path d="M12 18h.01" />
  <path d="M16 18h.01" /></symbol>
<symbol id="i-clock" viewBox="0 0 24 24" fill="none"><circle cx="12" cy="12" r="10" />
  <polyline points="12 6 12 12 16 14" /></symbol>
<symbol id="i-play" viewBox="0 0 24 24" fill="none"><circle cx="12" cy="12" r="10" />
  <polygon points="10 8 16 12 10 16 10 8" /></symbol>
<symbol id="i-check" viewBox="0 0 24 24" fill="none"><path d="M20 6 9 17l-5-5" /></symbol>
<symbol id="i-x-circle" viewBox="0 0 24 24" fill="none"><circle cx="12" cy="12" r="10" />
  <path d="m15 9-6 6" />
  <path d="m9 9 6 6" /></symbol>
<symbol id="i-x" viewBox="0 0 24 24" fill="none"><path d="M18 6 6 18" />
  <path d="m6 6 12 12" /></symbol>
<symbol id="i-ellipsis" viewBox="0 0 24 24" fill="none"><circle cx="12" cy="12" r="1" />
  <circle cx="19" cy="12" r="1" />
  <circle cx="5" cy="12" r="1" /></symbol>
<symbol id="i-filter" viewBox="0 0 24 24" fill="none"><line x1="21" x2="14" y1="4" y2="4" />
  <line x1="10" x2="3" y1="4" y2="4" />
  <line x1="21" x2="12" y1="12" y2="12" />
  <line x1="8" x2="3" y1="12" y2="12" />
  <line x1="21" x2="16" y1="20" y2="20" />
  <line x1="12" x2="3" y1="20" y2="20" />
  <line x1="14" x2="14" y1="2" y2="6" />
  <line x1="8" x2="8" y1="10" y2="14" />
  <line x1="16" x2="16" y1="18" y2="22" /></symbol>
<symbol id="i-lock" viewBox="0 0 24 24" fill="none"><rect width="18" height="11" x="3" y="11" rx="2" ry="2" />
  <path d="M7 11V7a5 5 0 0 1 10 0v4" /></symbol>
<symbol id="i-alert-triangle" viewBox="0 0 24 24" fill="none"><path d="m21.73 18-8-14a2 2 0 0 0-3.48 0l-8 14A2 2 0 0 0 4 21h16a2 2 0 0 0 1.73-3" />
  <path d="M12 9v4" />
  <path d="M12 17h.01" /></symbol>
<symbol id="i-retry" viewBox="0 0 24 24" fill="none"><path d="M3 12a9 9 0 0 1 9-9 9.75 9.75 0 0 1 6.74 2.74L21 8" />
  <path d="M21 3v5h-5" />
  <path d="M21 12a9 9 0 0 1-9 9 9.75 9.75 0 0 1-6.74-2.74L3 16" />
  <path d="M8 16H3v5" /></symbol>
<symbol id="i-calendar-plus" viewBox="0 0 24 24" fill="none"><path d="M8 2v4" />
  <path d="M16 2v4" />
  <path d="M21 13V6a2 2 0 0 0-2-2H5a2 2 0 0 0-2 2v14a2 2 0 0 0 2 2h8" />
  <path d="M3 10h18" />
  <path d="M16 19h6" />
  <path d="M19 16v6" /></symbol>
<symbol id="i-inbox" viewBox="0 0 24 24" fill="none"><polyline points="22 12 16 12 14 15 10 15 8 12 2 12" />
  <path d="M5.45 5.11 2 12v6a2 2 0 0 0 2 2h16a2 2 0 0 0 2-2v-6l-3.45-6.89A2 2 0 0 0 16.76 4H7.24a2 2 0 0 0-1.79 1.11z" /></symbol>
<symbol id="i-sparkles" viewBox="0 0 24 24" fill="none"><path d="M9.937 15.5A2 2 0 0 0 8.5 14.063l-6.135-1.582a.5.5 0 0 1 0-.962L8.5 9.936A2 2 0 0 0 9.937 8.5l1.582-6.135a.5.5 0 0 1 .963 0L14.063 8.5A2 2 0 0 0 15.5 9.937l6.135 1.581a.5.5 0 0 1 0 .964L15.5 14.063a2 2 0 0 0-1.437 1.437l-1.582 6.135a.5.5 0 0 1-.963 0z" />
  <path d="M20 3v4" />
  <path d="M22 5h-4" />
  <path d="M4 17v2" />
  <path d="M5 18H3" /></symbol>
<symbol id="i-arrow-left" viewBox="0 0 24 24" fill="none"><path d="m12 19-7-7 7-7" />
  <path d="M19 12H5" /></symbol>
<symbol id="i-tasks" viewBox="0 0 24 24" fill="none"><path d="m3 17 2 2 4-4" />
  <path d="m3 7 2 2 4-4" />
  <path d="M13 6h8" />
  <path d="M13 12h8" />
  <path d="M13 18h8" /></symbol>
<symbol id="i-messages" viewBox="0 0 24 24" fill="none"><path d="M21 15a2 2 0 0 1-2 2H7l-4 4V5a2 2 0 0 1 2-2h14a2 2 0 0 1 2 2z" /></symbol>
<symbol id="i-families" viewBox="0 0 24 24" fill="none"><path d="M16 18a4 4 0 0 0-8 0" />
  <circle cx="12" cy="11" r="3" />
  <rect width="18" height="18" x="3" y="4" rx="2" />
  <line x1="8" x2="8" y1="2" y2="4" />
  <line x1="16" x2="16" y1="2" y2="4" /></symbol>
<symbol id="i-materials" viewBox="0 0 24 24" fill="none"><path d="m16 6 4 14" />
  <path d="M12 6v14" />
  <path d="M8 8v12" />
  <path d="M4 4v16" /></symbol>
<symbol id="i-certificates" viewBox="0 0 24 24" fill="none"><path d="m15.477 12.89 1.515 8.526a.5.5 0 0 1-.81.47l-3.58-2.687a1 1 0 0 0-1.197 0l-3.586 2.686a.5.5 0 0 1-.81-.469l1.514-8.526" />
  <circle cx="12" cy="8" r="6" /></symbol>
<symbol id="i-staff" viewBox="0 0 24 24" fill="none"><path d="M20 13c0 5-3.5 7.5-7.66 8.95a1 1 0 0 1-.67-.01C7.5 20.5 4 18 4 13V6a1 1 0 0 1 1-1c2 0 4.5-1.2 6.24-2.72a1.17 1.17 0 0 1 1.52 0C14.51 3.81 17 5 19 5a1 1 0 0 1 1 1z" />
  <path d="m9 12 2 2 4-4" /></symbol>
<symbol id="i-megaphone" viewBox="0 0 24 24" fill="none"><path d="m3 11 18-5v12L3 14v-3z" />
  <path d="M11.6 16.8a3 3 0 1 1-5.8-1.6" /></symbol>
<symbol id="i-layers" viewBox="0 0 24 24" fill="none"><path d="m12.83 2.18a2 2 0 0 0-1.66 0L2.6 6.08a1 1 0 0 0 0 1.83l8.58 3.91a2 2 0 0 0 1.66 0l8.58-3.9a1 1 0 0 0 0-1.83Z" />
  <path d="m22 17.65-9.17 4.16a2 2 0 0 1-1.66 0L2 17.65" />
  <path d="m22 12.65-9.17 4.16a2 2 0 0 1-1.66 0L2 12.65" /></symbol>
<symbol id="i-grid" viewBox="0 0 24 24" fill="none"><rect width="7" height="7" x="3" y="3" rx="1" />
  <rect width="7" height="7" x="14" y="3" rx="1" />
  <rect width="7" height="7" x="14" y="14" rx="1" />
  <rect width="7" height="7" x="3" y="14" rx="1" /></symbol>
<symbol id="i-user-plus" viewBox="0 0 24 24" fill="none"><path d="M2 21a8 8 0 0 1 13.292-6" />
  <circle cx="10" cy="8" r="5" />
  <path d="M19 16v6" />
  <path d="M22 19h-6" /></symbol>
</svg>
